<svg xmlns="http://www.w3.org/2000/svg" xmlns:xlink="http://www.w3.org/1999/xlink" style="margin:auto;display:block;" viewBox="0 0 100 100" preserveAspectRatio="xMidYMid">
<g transform="rotate(0 50 50)">
  <rect x="48" y="19" rx="2" ry="5.32" width="4" height="14" fill="#44c0e6">
    <animate attributeName="opacity" values="1;0" keyTimes="0;1" dur="2.2222222222222223s" begin="-2.0833333333333335s" repeatCount="indefinite"></animate>
  </rect>
</g><g transform="rotate(22.5 50 50)">
  <rect x="48" y="19" rx="2" ry="5.32" width="4" height="14" fill="#44c0e6">
    <animate attributeName="opacity" values="1;0" keyTimes="0;1" dur="2.2222222222222223s" begin="-1.9444444444444444s" repeatCount="indefinite"></animate>
  </rect>
</g><g transform="rotate(45 50 50)">
  <rect x="48" y="19" rx="2" ry="5.32" width="4" height="14" fill="#44c0e6">
    <animate attributeName="opacity" values="1;0" keyTimes="0;1" dur="2.2222222222222223s" begin="-1.8055555555555556s" repeatCount="indefinite"></animate>
  </rect>
</g><g transform="rotate(67.5 50 50)">
  <rect x="48" y="19" rx="2" ry="5.32" width="4" height="14" fill="#44c0e6">
    <animate attributeName="opacity" values="1;0" keyTimes="0;1" dur="2.2222222222222223s" begin="-1.6666666666666665s" repeatCount="indefinite"></animate>
  </rect>
</g><g transform="rotate(90 50 50)">
  <rect x="48" y="19" rx="2" ry="5.32" width="4" height="14" fill="#44c0e6">
    <animate attributeName="opacity" values="1;0" keyTimes="0;1" dur="2.2222222222222223s" begin="-1.5277777777777777s" repeatCount="indefinite"></animate>
  </rect>
</g><g transform="rotate(112.5 50 50)">
  <rect x="48" y="19" rx="2" ry="5.32" width="4" height="14" fill="#44c0e6">
    <animate attributeName="opacity" values="1;0" keyTimes="0;1" dur="2.2222222222222223s" begin="-1.3888888888888888s" repeatCount="indefinite"></animate>
  </rect>
</g><g transform="rotate(135 50 50)">
  <rect x="48" y="19" rx="2" ry="5.32" width="4" height="14" fill="#44c0e6">
    <animate attributeName="opacity" values="1;0" keyTimes="0;1" dur="2.2222222222222223s" begin="-1.25s" repeatCount="indefinite"></animate>
  </rect>
</g><g transform="rotate(157.5 50 50)">
  <rect x="48" y="19" rx="2" ry="5.32" width="4" height="14" fill="#44c0e6">
    <animate attributeName="opacity" values="1;0" keyTimes="0;1" dur="2.2222222222222223s" begin="-1.1111111111111112s" repeatCount="indefinite"></animate>
  </rect>
</g><g transform="rotate(180 50 50)">
  <rect x="48" y="19" rx="2" ry="5.32" width="4" height="14" fill="#44c0e6">
    <animate attributeName="opacity" values="1;0" keyTimes="0;1" dur="2.2222222222222223s" begin="-0.9722222222222222s" repeatCount="indefinite"></animate>
  </rect>
</g><g transform="rotate(202.5 50 50)">
  <rect x="48" y="19" rx="2" ry="5.32" width="4" height="14" fill="#44c0e6">
    <animate attributeName="opacity" values="1;0" keyTimes="0;1" dur="2.2222222222222223s" begin="-0.8333333333333333s" repeatCount="indefinite"></animate>
  </rect>
</g><g transform="rotate(225 50 50)">
  <rect x="48" y="19" rx="2" ry="5.32" width="4" height="14" fill="#44c0e6">
    <animate attributeName="opacity" values="1;0" keyTimes="0;1" dur="2.2222222222222223s" begin="-0.6944444444444444s" repeatCount="indefinite"></animate>
  </rect>
</g><g transform="rotate(247.5 50 50)">
  <rect x="48" y="19" rx="2" ry="5.32" width="4" height="14" fill="#44c0e6">
    <animate attributeName="opacity" values="1;0" keyTimes="0;1" dur="2.2222222222222223s" begin="-0.5555555555555556s" repeatCount="indefinite"></animate>
  </rect>
</g><g transform="rotate(270 50 50)">
  <rect x="48" y="19" rx="2" ry="5.32" width="4" height="14" fill="#44c0e6">
    <animate attributeName="opacity" values="1;0" keyTimes="0;1" dur="2.2222222222222223s" begin="-0.41666666666666663s" repeatCount="indefinite"></animate>
  </rect>
</g><g transform="rotate(292.5 50 50)">
  <rect x="48" y="19" rx="2" ry="5.32" width="4" height="14" fill="#44c0e6">
    <animate attributeName="opacity" values="1;0" keyTimes="0;1" dur="2.2222222222222223s" begin="-0.2777777777777778s" repeatCount="indefinite"></animate>
  </rect>
</g><g transform="rotate(315 50 50)">
  <rect x="48" y="19" rx="2" ry="5.32" width="4" height="14" fill="#44c0e6">
    <animate attributeName="opacity" values="1;0" keyTimes="0;1" dur="2.2222222222222223s" begin="-0.1388888888888889s" repeatCount="indefinite"></animate>
  </rect>
</g><g transform="rotate(337.5 50 50)">
  <rect x="48" y="19" rx="2" ry="5.32" width="4" height="14" fill="#44c0e6">
    <animate attributeName="opacity" values="1;0" keyTimes="0;1" dur="2.2222222222222223s" begin="0s" repeatCount="indefinite"></animate>
  </rect>
</g>
</svg>